<?xml version="1.0" encoding="UTF-8"?>
<!DOCTYPE svg  PUBLIC '-//W3C//DTD SVG 1.1//EN'  'http://www.w3.org/Graphics/SVG/1.1/DTD/svg11.dtd'>
<svg width="502.5pt" height="279.05pt" version="1.1" viewBox="0 0 502.5 279.05" xmlns="http://www.w3.org/2000/svg" xmlns:xlink="http://www.w3.org/1999/xlink">
 <defs>
  <style type="text/css">*{stroke-linejoin: round; stroke-linecap: butt}</style>
 </defs>
 <path d="m0 279.05h502.5v-279.05h-502.5z" fill="#fff"/>
 <path d="m45.717 239.56h446.4v-221.76h-446.4z" fill="#fff"/>
 <path d="m51.228 239.56v-221.76" clip-path="url(#a)" fill="none" stroke="#d3d3d3" stroke-dasharray="1.85,0.8" stroke-width=".5"/>
 <defs>
  <path id="f" d="m0 0v3.5" stroke="#000" stroke-width=".8"/>
 </defs>
 <use x="51.227986" y="239.558438" stroke="#000000" stroke-width=".8" xlink:href="#f"/>
 <!-- 1 -->
 <g transform="translate(48.047 254.16) scale(.1 -.1)">
  <defs>
   <path id="c" transform="scale(.015625)" d="m794 531h1031v3560l-1122-225v575l1116 225h631v-4135h1031v-531h-2687v531z"/>
  </defs>
  <use xlink:href="#c"/>
 </g>
 <path d="m106.34 239.56v-221.76" clip-path="url(#a)" fill="none" stroke="#d3d3d3" stroke-dasharray="1.85,0.8" stroke-width=".5"/>
 <use x="106.339097" y="239.558438" stroke="#000000" stroke-width=".8" xlink:href="#f"/>
 <!-- 2 -->
 <g transform="translate(103.16 254.16) scale(.1 -.1)">
  <defs>
   <path id="j" transform="scale(.015625)" d="m1228 531h2203v-531h-2962v531q359 372 979 998 621 627 780 809 303 340 423 576 121 236 121 464 0 372-261 606-261 235-680 235-297 0-627-103-329-103-704-313v638q381 153 712 231 332 78 607 78 725 0 1156-363 431-362 431-968 0-288-108-546-107-257-392-607-78-91-497-524-418-433-1181-1211z"/>
  </defs>
  <use xlink:href="#j"/>
 </g>
 <path d="m161.45 239.56v-221.76" clip-path="url(#a)" fill="none" stroke="#d3d3d3" stroke-dasharray="1.85,0.8" stroke-width=".5"/>
 <use x="161.450208" y="239.558438" stroke="#000000" stroke-width=".8" xlink:href="#f"/>
 <!-- 3 -->
 <g transform="translate(158.27 254.16) scale(.1 -.1)">
  <defs>
   <path id="n" transform="scale(.015625)" d="m2597 2516q453-97 707-404 255-306 255-756 0-690-475-1069-475-378-1350-378-293 0-604 58t-642 174v609q262-153 574-231 313-78 654-78 593 0 904 234t311 681q0 413-289 645-289 233-804 233h-544v519h569q465 0 712 186t247 536q0 359-255 551-254 193-729 193-260 0-557-57-297-56-653-174v562q360 100 674 150t592 50q719 0 1137-327 419-326 419-882 0-388-222-655t-631-370z"/>
  </defs>
  <use xlink:href="#n"/>
 </g>
 <path d="m216.56 239.56v-221.76" clip-path="url(#a)" fill="none" stroke="#d3d3d3" stroke-dasharray="1.85,0.8" stroke-width=".5"/>
 <use x="216.561319" y="239.558438" stroke="#000000" stroke-width=".8" xlink:href="#f"/>
 <!-- 4 -->
 <g transform="translate(213.38 254.16) scale(.1 -.1)">
  <defs>
   <path id="i" transform="scale(.015625)" d="m2419 4116-1594-2491h1594v2491zm-166 550h794v-3041h666v-525h-666v-1100h-628v1100h-2106v609l1940 2957z"/>
  </defs>
  <use xlink:href="#i"/>
 </g>
 <path d="m271.67 239.56v-221.76" clip-path="url(#a)" fill="none" stroke="#d3d3d3" stroke-dasharray="1.85,0.8" stroke-width=".5"/>
 <use x="271.672431" y="239.558438" stroke="#000000" stroke-width=".8" xlink:href="#f"/>
 <!-- 5 -->
 <g transform="translate(268.49 254.16) scale(.1 -.1)">
  <defs>
   <path id="y" transform="scale(.015625)" d="m691 4666h2478v-532h-1900v-1143q137 47 274 70 138 23 276 23 781 0 1237-428 457-428 457-1159 0-753-469-1171-469-417-1322-417-294 0-599 50-304 50-629 150v635q281-153 581-228t634-75q541 0 856 284 316 284 316 772 0 487-316 771-315 285-856 285-253 0-505-56-251-56-513-175v2344z"/>
  </defs>
  <use xlink:href="#y"/>
 </g>
 <path d="m326.78 239.56v-221.76" clip-path="url(#a)" fill="none" stroke="#d3d3d3" stroke-dasharray="1.85,0.8" stroke-width=".5"/>
 <use x="326.783542" y="239.558438" stroke="#000000" stroke-width=".8" xlink:href="#f"/>
 <!-- 6 -->
 <g transform="translate(323.6 254.16) scale(.1 -.1)">
  <defs>
   <path id="p" transform="scale(.015625)" d="m2113 2584q-425 0-674-291-248-290-248-796 0-503 248-796 249-292 674-292t673 292q248 293 248 796 0 506-248 796-248 291-673 291zm1253 1979v-575q-238 112-480 171-242 60-480 60-625 0-955-422-329-422-376-1275 184 272 462 417 279 145 613 145 703 0 1111-427 408-426 408-1160 0-719-425-1154-425-434-1131-434-810 0-1238 620-428 621-428 1799 0 1106 525 1764t1409 658q238 0 480-47t505-140z"/>
  </defs>
  <use xlink:href="#p"/>
 </g>
 <path d="m381.89 239.56v-221.76" clip-path="url(#a)" fill="none" stroke="#d3d3d3" stroke-dasharray="1.85,0.8" stroke-width=".5"/>
 <use x="381.894653" y="239.558438" stroke="#000000" stroke-width=".8" xlink:href="#f"/>
 <!-- 7 -->
 <g transform="translate(378.71 254.16) scale(.1 -.1)">
  <defs>
   <path id="t" transform="scale(.015625)" d="m525 4666h3e3v-269l-1694-4397h-659l1594 4134h-2241v532z"/>
  </defs>
  <use xlink:href="#t"/>
 </g>
 <path d="m437.01 239.56v-221.76" clip-path="url(#a)" fill="none" stroke="#d3d3d3" stroke-dasharray="1.85,0.8" stroke-width=".5"/>
 <use x="437.005764" y="239.558438" stroke="#000000" stroke-width=".8" xlink:href="#f"/>
 <!-- 8 -->
 <g transform="translate(433.82 254.16) scale(.1 -.1)">
  <defs>
   <path id="x" transform="scale(.015625)" d="m2034 2216q-450 0-708-241-257-241-257-662 0-422 257-663 258-241 708-241t709 242q260 243 260 662 0 421-258 662-257 241-711 241zm-631 268q-406 100-633 378-226 279-226 679 0 559 398 884 399 325 1092 325 697 0 1094-325t397-884q0-400-227-679-226-278-629-378 456-106 710-416 255-309 255-755 0-679-414-1042-414-362-1186-362-771 0-1186 362-414 363-414 1042 0 446 256 755 257 310 713 416zm-231 997q0-362 226-565 227-203 636-203 407 0 636 203 230 203 230 565 0 363-230 566-229 203-636 203-409 0-636-203-226-203-226-566z"/>
  </defs>
  <use xlink:href="#x"/>
 </g>
 <path d="m492.12 239.56v-221.76" clip-path="url(#a)" fill="none" stroke="#d3d3d3" stroke-dasharray="1.85,0.8" stroke-width=".5"/>
 <use x="492.116875" y="239.558438" stroke="#000000" stroke-width=".8" xlink:href="#f"/>
 <!-- 9 -->
 <g transform="translate(488.94 254.16) scale(.1 -.1)">
  <defs>
   <path id="ak" transform="scale(.015625)" d="m703 97v575q238-113 481-172 244-59 479-59 625 0 954 420 330 420 377 1277-181-269-460-413-278-144-615-144-700 0-1108 423-408 424-408 1159 0 718 425 1152 425 435 1131 435 810 0 1236-621 427-620 427-1801 0-1103-524-1761-523-658-1407-658-238 0-482 47-243 47-506 141zm1256 1978q425 0 673 290 249 291 249 798 0 503-249 795-248 292-673 292t-673-292-248-795q0-507 248-798 248-290 673-290z"/>
  </defs>
  <use xlink:href="#ak"/>
 </g>
 <!-- CPUs utilized -->
 <g transform="translate(229.88 269.35) scale(.12 -.12)">
  <defs>
   <path id="aj" transform="scale(.015625)" d="m4122 4306v-665q-319 297-680 443-361 147-767 147-800 0-1225-489t-425-1414q0-922 425-1411t1225-489q406 0 767 147t680 444v-660q-331-225-702-338-370-112-782-112-1060 0-1670 648-609 649-609 1771 0 1125 609 1773 610 649 1670 649 418 0 788-111 371-111 696-333z"/>
   <path id="ai" transform="scale(.015625)" d="m1259 4147v-1753h794q441 0 681 228 241 228 241 650 0 419-241 647-240 228-681 228h-794zm-631 519h1425q785 0 1186-355 402-355 402-1039 0-691-402-1044-401-353-1186-353h-794v-1875h-631v4666z"/>
   <path id="ah" transform="scale(.015625)" d="m556 4666h635v-2835q0-750 271-1080 272-329 882-329 606 0 878 329 272 330 272 1080v2835h634v-2913q0-912-452-1378-451-466-1332-466-885 0-1337 466-451 466-451 1378v2913z"/>
   <path id="s" transform="scale(.015625)" d="m2834 3397v-544q-243 125-506 187-262 63-544 63-428 0-642-131t-214-394q0-200 153-314t616-217l197-44q612-131 870-370t258-667q0-488-386-773-386-284-1061-284-281 0-586 55t-642 164v594q319-166 628-249 309-82 613-82 406 0 624 139 219 139 219 392 0 234-158 359-157 125-692 241l-200 47q-534 112-772 345-237 233-237 639 0 494 350 762 350 269 994 269 318 0 599-47 282-46 519-140z"/>
   <path id="ag" transform="scale(.015625)" d="m544 1381v2119h575v-2097q0-497 193-746 194-248 582-248 465 0 735 297 271 297 271 810v1984h575v-3500h-575v538q-209-319-486-474-276-155-642-155-603 0-916 375-312 375-312 1097zm1447 2203z"/>
   <path id="r" transform="scale(.015625)" d="m1172 4494v-994h1184v-447h-1184v-1900q0-428 117-550t477-122h590v-481h-590q-666 0-919 248-253 249-253 905v1900h-422v447h422v994h578z"/>
   <path id="ac" transform="scale(.015625)" d="m603 3500h575v-3500h-575v3500zm0 1363h575v-729h-575v729z"/>
   <path id="v" transform="scale(.015625)" d="m603 4863h575v-4863h-575v4863z"/>
   <path id="af" transform="scale(.015625)" d="m353 3500h2731v-525l-2162-2516h2162v-459h-2809v525l2163 2516h-2085v459z"/>
   <path id="l" transform="scale(.015625)" d="m3597 1894v-281h-2644q38-594 358-905t892-311q331 0 642 81t618 244v-544q-310-131-635-200t-659-69q-838 0-1327 487-489 488-489 1320 0 859 464 1363 464 505 1252 505 706 0 1117-455 411-454 411-1235zm-575 169q-6 471-264 752-258 282-683 282-481 0-770-272t-333-766l2050 4z"/>
   <path id="o" transform="scale(.015625)" d="m2906 2969v1894h575v-4863h-575v525q-181-312-458-464-276-152-664-152-634 0-1033 506-398 507-398 1332t398 1331q399 506 1033 506 388 0 664-152 277-151 458-463zm-1959-1222q0-634 261-995t717-361 718 361q263 361 263 995t-263 995q-262 361-718 361t-717-361-261-995z"/>
  </defs>
  <use xlink:href="#aj"/>
  <use x="69.824219" xlink:href="#ai"/>
  <use x="130.126953" xlink:href="#ah"/>
  <use x="203.320312" xlink:href="#s"/>
  <use x="255.419922" xlink:href="#DejaVuSans-20"/>
  <use x="287.207031" xlink:href="#ag"/>
  <use x="350.585938" xlink:href="#r"/>
  <use x="389.794922" xlink:href="#ac"/>
  <use x="417.578125" xlink:href="#v"/>
  <use x="445.361328" xlink:href="#ac"/>
  <use x="473.144531" xlink:href="#af"/>
  <use x="525.634766" xlink:href="#l"/>
  <use x="587.158203" xlink:href="#o"/>
 </g>
 <path d="m45.717 235.96h446.4" clip-path="url(#a)" fill="none" stroke="#d3d3d3" stroke-dasharray="1.85,0.8" stroke-width=".5"/>
 <defs>
  <path id="h" d="m0 0h-3.5" stroke="#000" stroke-width=".8"/>
 </defs>
 <use x="45.716875" y="235.962663" stroke="#000000" stroke-width=".8" xlink:href="#h"/>
 <!-- 0.0 -->
 <g transform="translate(22.814 239.76) scale(.1 -.1)">
  <defs>
   <path id="g" transform="scale(.015625)" d="m2034 4250q-487 0-733-480-245-479-245-1442 0-959 245-1439 246-480 733-480 491 0 736 480 246 480 246 1439 0 963-246 1442-245 480-736 480zm0 500q785 0 1199-621 414-620 414-1801 0-1178-414-1799-414-620-1199-620-784 0-1198 620-414 621-414 1799 0 1181 414 1801 414 621 1198 621z"/>
   <path id="b" transform="scale(.015625)" d="m684 794h660v-794h-660v794z"/>
  </defs>
  <use xlink:href="#g"/>
  <use x="63.623047" xlink:href="#b"/>
  <use x="95.410156" xlink:href="#g"/>
 </g>
 <path d="m45.717 207.41h446.4" clip-path="url(#a)" fill="none" stroke="#d3d3d3" stroke-dasharray="1.85,0.8" stroke-width=".5"/>
 <use x="45.716875" y="207.407361" stroke="#000000" stroke-width=".8" xlink:href="#h"/>
 <!-- 0.2 -->
 <g transform="translate(22.814 211.21) scale(.1 -.1)">
  <use xlink:href="#g"/>
  <use x="63.623047" xlink:href="#b"/>
  <use x="95.410156" xlink:href="#j"/>
 </g>
 <path d="m45.717 178.85h446.4" clip-path="url(#a)" fill="none" stroke="#d3d3d3" stroke-dasharray="1.85,0.8" stroke-width=".5"/>
 <use x="45.716875" y="178.852058" stroke="#000000" stroke-width=".8" xlink:href="#h"/>
 <!-- 0.4 -->
 <g transform="translate(22.814 182.65) scale(.1 -.1)">
  <use xlink:href="#g"/>
  <use x="63.623047" xlink:href="#b"/>
  <use x="95.410156" xlink:href="#i"/>
 </g>
 <path d="m45.717 150.3h446.4" clip-path="url(#a)" fill="none" stroke="#d3d3d3" stroke-dasharray="1.85,0.8" stroke-width=".5"/>
 <use x="45.716875" y="150.296756" stroke="#000000" stroke-width=".8" xlink:href="#h"/>
 <!-- 0.6 -->
 <g transform="translate(22.814 154.1) scale(.1 -.1)">
  <use xlink:href="#g"/>
  <use x="63.623047" xlink:href="#b"/>
  <use x="95.410156" xlink:href="#p"/>
 </g>
 <path d="m45.717 121.74h446.4" clip-path="url(#a)" fill="none" stroke="#d3d3d3" stroke-dasharray="1.85,0.8" stroke-width=".5"/>
 <use x="45.716875" y="121.741453" stroke="#000000" stroke-width=".8" xlink:href="#h"/>
 <!-- 0.8 -->
 <g transform="translate(22.814 125.54) scale(.1 -.1)">
  <use xlink:href="#g"/>
  <use x="63.623047" xlink:href="#b"/>
  <use x="95.410156" xlink:href="#x"/>
 </g>
 <path d="m45.717 93.186h446.4" clip-path="url(#a)" fill="none" stroke="#d3d3d3" stroke-dasharray="1.85,0.8" stroke-width=".5"/>
 <use x="45.716875" y="93.18615" stroke="#000000" stroke-width=".8" xlink:href="#h"/>
 <!-- 1.0 -->
 <g transform="translate(22.814 96.985) scale(.1 -.1)">
  <use xlink:href="#c"/>
  <use x="63.623047" xlink:href="#b"/>
  <use x="95.410156" xlink:href="#g"/>
 </g>
 <path d="m45.717 64.631h446.4" clip-path="url(#a)" fill="none" stroke="#d3d3d3" stroke-dasharray="1.85,0.8" stroke-width=".5"/>
 <use x="45.716875" y="64.630848" stroke="#000000" stroke-width=".8" xlink:href="#h"/>
 <!-- 1.2 -->
 <g transform="translate(22.814 68.43) scale(.1 -.1)">
  <use xlink:href="#c"/>
  <use x="63.623047" xlink:href="#b"/>
  <use x="95.410156" xlink:href="#j"/>
 </g>
 <path d="m45.717 36.076h446.4" clip-path="url(#a)" fill="none" stroke="#d3d3d3" stroke-dasharray="1.85,0.8" stroke-width=".5"/>
 <use x="45.716875" y="36.075545" stroke="#000000" stroke-width=".8" xlink:href="#h"/>
 <!-- 1.4 -->
 <g transform="translate(22.814 39.875) scale(.1 -.1)">
  <use xlink:href="#c"/>
  <use x="63.623047" xlink:href="#b"/>
  <use x="95.410156" xlink:href="#i"/>
 </g>
 <!-- Reads / s -->
 <g transform="translate(16.318 155.84) rotate(-90) scale(.12 -.12)">
  <defs>
   <path id="w" transform="scale(.015625)" d="m2841 2188q203-69 395-294t386-619l641-1275h-679l-596 1197q-232 469-449 622t-592 153h-688v-1972h-631v4666h1425q800 0 1194-335 394-334 394-1009 0-441-205-732-205-290-595-402zm-1582 1959v-1656h794q456 0 689 211t233 620-233 617-689 208h-794z"/>
   <path id="m" transform="scale(.015625)" d="m2194 1759q-697 0-966-159t-269-544q0-306 202-486 202-179 548-179 479 0 768 339t289 901v128h-572zm1147 238v-1997h-575v531q-197-318-491-470t-719-152q-537 0-855 302-317 302-317 808 0 590 395 890 396 300 1180 300h807v57q0 397-261 614t-733 217q-300 0-585-72-284-72-546-216v532q315 122 612 182 297 61 578 61 760 0 1135-394 375-393 375-1193z"/>
   <path id="al" transform="scale(.015625)" d="m1625 4666h531l-1625-5260h-531l1625 5260z"/>
  </defs>
  <use xlink:href="#w"/>
  <use x="64.982422" xlink:href="#l"/>
  <use x="126.505859" xlink:href="#m"/>
  <use x="187.785156" xlink:href="#o"/>
  <use x="251.261719" xlink:href="#s"/>
  <use x="303.361328" xlink:href="#DejaVuSans-20"/>
  <use x="335.148438" xlink:href="#al"/>
  <use x="368.839844" xlink:href="#DejaVuSans-20"/>
  <use x="400.626953" xlink:href="#s"/>
 </g>
 <!-- 1e6 -->
 <g transform="translate(45.717 14.798) scale(.1 -.1)">
  <use xlink:href="#c"/>
  <use x="63.623047" xlink:href="#l"/>
  <use x="125.146484" xlink:href="#p"/>
 </g>
 <path d="m50.976 229.48 54.506-6.2177 54.239-5.4597 30.55-3.6732 0.02036-0.016745-0.20055 0.031843 0.095866 0.007552-0.47078 0.070115" clip-path="url(#a)" fill="none" stroke="#1f77b4" stroke-dasharray="9.6,2.4,1.5,2.4" stroke-width="1.5"/>
 <defs>
  <path id="d" d="m0 1.5c0.3978 0 0.77937-0.15805 1.0607-0.43934 0.28129-0.28129 0.43934-0.66286 0.43934-1.0607s-0.15805-0.77937-0.43934-1.0607c-0.28129-0.28129-0.66286-0.43934-1.0607-0.43934s-0.77937 0.15805-1.0607 0.43934c-0.28129 0.28129-0.43934 0.66286-0.43934 1.0607s0.15805 0.77937 0.43934 1.0607c0.28129 0.28129 0.66286 0.43934 1.0607 0.43934z" stroke="#1f77b4"/>
 </defs>
 <g clip-path="url(#a)" fill="#1f77b4" stroke="#1f77b4">
  <use x="50.976397" y="229.478438" xlink:href="#d"/>
  <use x="105.482724" y="223.260736" xlink:href="#d"/>
  <use x="159.721697" y="217.801061" xlink:href="#d"/>
  <use x="190.271393" y="214.127854" xlink:href="#d"/>
  <use x="190.291753" y="214.111109" xlink:href="#d"/>
  <use x="190.091203" y="214.142952" xlink:href="#d"/>
  <use x="190.187069" y="214.150504" xlink:href="#d"/>
  <use x="189.716287" y="214.220619" xlink:href="#d"/>
 </g>
 <path d="m52.255 204.77 54.935-26.002 54.393-26.671 53.531-27.224 52.634-26.552 51.936-24.722 50.848-22.635 52.257-23.084" clip-path="url(#a)" fill="none" stroke="#ff7f0e" stroke-dasharray="5.55,2.4" stroke-width="1.5"/>
 <defs>
  <path id="e" d="m0 1.5c0.3978 0 0.77937-0.15805 1.0607-0.43934 0.28129-0.28129 0.43934-0.66286 0.43934-1.0607s-0.15805-0.77937-0.43934-1.0607c-0.28129-0.28129-0.66286-0.43934-1.0607-0.43934s-0.77937 0.15805-1.0607 0.43934c-0.28129 0.28129-0.43934 0.66286-0.43934 1.0607s0.15805 0.77937 0.43934 1.0607c0.28129 0.28129 0.66286 0.43934 1.0607 0.43934z" stroke="#ff7f0e"/>
 </defs>
 <g clip-path="url(#a)" fill="#ff7f0e" stroke="#ff7f0e">
  <use x="52.255373" y="204.768445" xlink:href="#e"/>
  <use x="107.190112" y="178.766592" xlink:href="#e"/>
  <use x="161.583018" y="152.095921" xlink:href="#e"/>
  <use x="215.113658" y="124.871779" xlink:href="#e"/>
  <use x="267.747665" y="98.319773" xlink:href="#e"/>
  <use x="319.683386" y="73.597424" xlink:href="#e"/>
  <use x="370.531884" y="50.962894" xlink:href="#e"/>
  <use x="422.789355" y="27.878438" xlink:href="#e"/>
 </g>
 <path d="m74.92 219.55 74.309-14.951 74.595-14.503 75.893-14.47 78.85-13.605 82.471-11.684" clip-path="url(#a)" fill="none" stroke="#2ca02c" stroke-linecap="square" stroke-width="1.5"/>
 <defs>
  <path id="k" d="m0 1.5c0.3978 0 0.77937-0.15805 1.0607-0.43934 0.28129-0.28129 0.43934-0.66286 0.43934-1.0607s-0.15805-0.77937-0.43934-1.0607c-0.28129-0.28129-0.66286-0.43934-1.0607-0.43934s-0.77937 0.15805-1.0607 0.43934c-0.28129 0.28129-0.43934 0.66286-0.43934 1.0607s0.15805 0.77937 0.43934 1.0607c0.28129 0.28129 0.66286 0.43934 1.0607 0.43934z" stroke="#2ca02c"/>
 </defs>
 <g clip-path="url(#a)" fill="#2ca02c" stroke="#2ca02c">
  <use x="74.919674" y="219.548364" xlink:href="#k"/>
  <use x="149.22856" y="204.597107" xlink:href="#k"/>
  <use x="223.823305" y="190.094138" xlink:href="#k"/>
  <use x="299.716558" y="175.624172" xlink:href="#k"/>
  <use x="378.56681" y="162.01922" xlink:href="#k"/>
  <use x="461.038273" y="150.335691" xlink:href="#k"/>
 </g>
 <path d="m52.717 69.833h182.9q2 0 2-2v-43.034q0-2-2-2h-182.9q-2 0-2 2v43.034q0 2 2 2z" fill="#fff" opacity=".8" stroke="#ccc"/>
 <path d="m54.717 30.897h10 10" fill="none" stroke="#1f77b4" stroke-dasharray="9.6,2.4,1.5,2.4" stroke-width="1.5"/>
 <use x="64.716875" y="30.896875" fill="#1f77b4" stroke="#1f77b4" xlink:href="#d"/>
 <!-- AdapterRemoval v2.3.4 -->
 <g transform="translate(82.717 34.397) scale(.1 -.1)">
  <defs>
   <path id="ae" transform="scale(.015625)" d="m2188 4044-857-2322h1716l-859 2322zm-357 622h716l1778-4666h-656l-425 1197h-2103l-425-1197h-666l1781 4666z"/>
   <path id="u" transform="scale(.015625)" d="m1159 525v-1856h-578v4831h578v-531q182 312 458 463 277 152 661 152 638 0 1036-506 399-506 399-1331t-399-1332q-398-506-1036-506-384 0-661 152-276 152-458 464zm1957 1222q0 634-261 995t-717 361q-457 0-718-361t-261-995 261-995 718-361q456 0 717 361t261 995z"/>
   <path id="z" transform="scale(.015625)" d="m2631 2963q-97 56-211 82-114 27-251 27-488 0-749-317t-261-911v-1844h-578v3500h578v-544q182 319 472 473 291 155 707 155 59 0 131-8 72-7 159-23l3-590z"/>
   <path id="ab" transform="scale(.015625)" d="m3328 2828q216 388 516 572t706 184q547 0 844-383 297-382 297-1088v-2113h-578v2094q0 503-179 746-178 244-543 244-447 0-707-297-259-296-259-809v-1978h-578v2094q0 506-178 748t-550 242q-441 0-701-298-259-298-259-808v-1978h-578v3500h578v-544q197 322 472 475t653 153q382 0 649-194 267-193 395-562z"/>
   <path id="aa" transform="scale(.015625)" d="m1959 3097q-462 0-731-361t-269-989 267-989q268-361 733-361 460 0 728 362 269 363 269 988 0 622-269 986-268 364-728 364zm0 487q750 0 1178-488 429-487 429-1349 0-859-429-1349-428-489-1178-489-753 0-1180 489-426 490-426 1349 0 862 426 1349 427 488 1180 488z"/>
   <path id="q" transform="scale(.015625)" d="m191 3500h609l1094-2937 1094 2937h609l-1313-3500h-781l-1312 3500z"/>
  </defs>
  <use xlink:href="#ae"/>
  <use x="66.658203" xlink:href="#o"/>
  <use x="130.134766" xlink:href="#m"/>
  <use x="191.414062" xlink:href="#u"/>
  <use x="254.890625" xlink:href="#r"/>
  <use x="294.099609" xlink:href="#l"/>
  <use x="355.623047" xlink:href="#z"/>
  <use x="396.736328" xlink:href="#w"/>
  <use x="461.71875" xlink:href="#l"/>
  <use x="523.242188" xlink:href="#ab"/>
  <use x="620.654297" xlink:href="#aa"/>
  <use x="681.835938" xlink:href="#q"/>
  <use x="741.015625" xlink:href="#m"/>
  <use x="802.294922" xlink:href="#v"/>
  <use x="830.078125" xlink:href="#DejaVuSans-20"/>
  <use x="861.865234" xlink:href="#q"/>
  <use x="921.044922" xlink:href="#j"/>
  <use x="984.667969" xlink:href="#b"/>
  <use x="1016.455078" xlink:href="#n"/>
  <use x="1080.078125" xlink:href="#b"/>
  <use x="1111.865234" xlink:href="#i"/>
 </g>
 <path d="m54.717 45.575h10 10" fill="none" stroke="#ff7f0e" stroke-dasharray="5.55,2.4" stroke-width="1.5"/>
 <use x="64.716875" y="45.575" fill="#ff7f0e" stroke="#ff7f0e" xlink:href="#e"/>
 <!-- AdapterRemoval v3 (1f0d7a7) -->
 <g transform="translate(82.717 49.075) scale(.1 -.1)">
  <defs>
   <path id="an" transform="scale(.015625)" d="m1984 4856q-418-718-622-1422-203-703-203-1425 0-721 205-1429t620-1424h-500q-468 735-701 1444t-233 1409q0 697 231 1403 232 707 703 1444h500z"/>
   <path id="ad" transform="scale(.015625)" d="m2375 4863v-479h-550q-309 0-430-125-120-125-120-450v-309h947v-447h-947v-3053h-578v3053h-550v447h550v244q0 584 272 851 272 268 862 268h544z"/>
   <path id="am" transform="scale(.015625)" d="m513 4856h500q468-737 701-1444 233-706 233-1403 0-700-233-1409t-701-1444h-500q415 716 620 1424t205 1429q0 722-205 1425-205 704-620 1422z"/>
  </defs>
  <use xlink:href="#ae"/>
  <use x="66.658203" xlink:href="#o"/>
  <use x="130.134766" xlink:href="#m"/>
  <use x="191.414062" xlink:href="#u"/>
  <use x="254.890625" xlink:href="#r"/>
  <use x="294.099609" xlink:href="#l"/>
  <use x="355.623047" xlink:href="#z"/>
  <use x="396.736328" xlink:href="#w"/>
  <use x="461.71875" xlink:href="#l"/>
  <use x="523.242188" xlink:href="#ab"/>
  <use x="620.654297" xlink:href="#aa"/>
  <use x="681.835938" xlink:href="#q"/>
  <use x="741.015625" xlink:href="#m"/>
  <use x="802.294922" xlink:href="#v"/>
  <use x="830.078125" xlink:href="#DejaVuSans-20"/>
  <use x="861.865234" xlink:href="#q"/>
  <use x="921.044922" xlink:href="#n"/>
  <use x="984.667969" xlink:href="#DejaVuSans-20"/>
  <use x="1016.455078" xlink:href="#an"/>
  <use x="1055.46875" xlink:href="#c"/>
  <use x="1119.091797" xlink:href="#ad"/>
  <use x="1154.296875" xlink:href="#g"/>
  <use x="1217.919922" xlink:href="#o"/>
  <use x="1281.396484" xlink:href="#t"/>
  <use x="1345.019531" xlink:href="#m"/>
  <use x="1406.298828" xlink:href="#t"/>
  <use x="1469.921875" xlink:href="#am"/>
 </g>
 <path d="m54.717 60.253h10 10" fill="none" stroke="#2ca02c" stroke-linecap="square" stroke-width="1.5"/>
 <use x="64.716875" y="60.253125" fill="#2ca02c" stroke="#2ca02c" xlink:href="#k"/>
 <!-- fastp 0.24.1 -->
 <g transform="translate(82.717 63.753) scale(.1 -.1)">
  <use xlink:href="#ad"/>
  <use x="35.205078" xlink:href="#m"/>
  <use x="96.484375" xlink:href="#s"/>
  <use x="148.583984" xlink:href="#r"/>
  <use x="187.792969" xlink:href="#u"/>
  <use x="251.269531" xlink:href="#DejaVuSans-20"/>
  <use x="283.056641" xlink:href="#g"/>
  <use x="346.679688" xlink:href="#b"/>
  <use x="378.466797" xlink:href="#j"/>
  <use x="442.089844" xlink:href="#i"/>
  <use x="505.712891" xlink:href="#b"/>
  <use x="537.5" xlink:href="#c"/>
 </g>
 <path d="m45.717 239.56v-221.76" fill="none" stroke="#000" stroke-linecap="square" stroke-width=".8"/>
 <path d="m492.12 239.56v-221.76" fill="none" stroke="#000" stroke-linecap="square" stroke-width=".8"/>
 <path d="m45.717 239.56h446.4" fill="none" stroke="#000" stroke-linecap="square" stroke-width=".8"/>
 <path d="m45.717 17.798h446.4" fill="none" stroke="#000" stroke-linecap="square" stroke-width=".8"/>
 <!-- 1 -->
 <g transform="translate(50.976 229.48) scale(.1 -.1)">
  <use xlink:href="#c"/>
 </g>
 <!-- 2 -->
 <g transform="translate(105.48 223.26) scale(.1 -.1)">
  <use xlink:href="#j"/>
 </g>
 <!-- 3 -->
 <g transform="translate(159.72 217.8) scale(.1 -.1)">
  <use xlink:href="#n"/>
 </g>
 <!-- 4 -->
 <g transform="translate(190.27 214.13) scale(.1 -.1)">
  <use xlink:href="#i"/>
 </g>
 <!-- 1 -->
 <g transform="translate(52.255 204.77) scale(.1 -.1)">
  <use xlink:href="#c"/>
 </g>
 <!-- 2 -->
 <g transform="translate(107.19 178.77) scale(.1 -.1)">
  <use xlink:href="#j"/>
 </g>
 <!-- 3 -->
 <g transform="translate(161.58 152.1) scale(.1 -.1)">
  <use xlink:href="#n"/>
 </g>
 <!-- 4 -->
 <g transform="translate(215.11 124.87) scale(.1 -.1)">
  <use xlink:href="#i"/>
 </g>
 <!-- 5 -->
 <g transform="translate(267.75 98.32) scale(.1 -.1)">
  <use xlink:href="#y"/>
 </g>
 <!-- 6 -->
 <g transform="translate(319.68 73.597) scale(.1 -.1)">
  <use xlink:href="#p"/>
 </g>
 <!-- 7 -->
 <g transform="translate(370.53 50.963) scale(.1 -.1)">
  <use xlink:href="#t"/>
 </g>
 <!-- 8 -->
 <g transform="translate(422.79 27.878) scale(.1 -.1)">
  <use xlink:href="#x"/>
 </g>
 <!-- 1 -->
 <g transform="translate(74.92 219.55) scale(.1 -.1)">
  <use xlink:href="#c"/>
 </g>
 <!-- 2 -->
 <g transform="translate(149.23 204.6) scale(.1 -.1)">
  <use xlink:href="#j"/>
 </g>
 <!-- 3 -->
 <g transform="translate(223.82 190.09) scale(.1 -.1)">
  <use xlink:href="#n"/>
 </g>
 <!-- 4 -->
 <g transform="translate(299.72 175.62) scale(.1 -.1)">
  <use xlink:href="#i"/>
 </g>
 <!-- 5 -->
 <g transform="translate(378.57 162.02) scale(.1 -.1)">
  <use xlink:href="#y"/>
 </g>
 <!-- 6 -->
 <g transform="translate(461.04 150.34) scale(.1 -.1)">
  <use xlink:href="#p"/>
 </g>
 <defs>
  <clipPath id="a">
   <rect x="45.717" y="17.798" width="446.4" height="221.76"/>
  </clipPath>
 </defs>
</svg>
